name C:\Users\Nicos\Documents\OpenSimProjects\SprintingProject\Study1\PredictiveResults\IC_pred_Sprinting_optimum_28-October-2023__10-02-52___HTD_Plus_6_p02_maxVel_01.mot
datacolumns 38
datarows 12
range 0.10942665 0.12003217
endheader
                time	/jointset/ground_pelvis/pelvis_tilt/value	/jointset/ground_pelvis/pelvis_list/value	/jointset/ground_pelvis/pelvis_rotation/value	/jointset/ground_pelvis/pelvis_tx/value	/jointset/ground_pelvis/pelvis_ty/value	/jointset/ground_pelvis/pelvis_tz/value	/jointset/hip_r/hip_flexion_r/value	/jointset/hip_r/hip_adduction_r/value	/jointset/hip_r/hip_rotation_r/value	/jointset/knee_r/knee_angle_r/value	/jointset/ankle_r/ankle_angle_r/value	/jointset/subtalar_r/subtalar_angle_r/value	/jointset/mtp_r/mtp_angle_r/value	/jointset/hip_l/hip_flexion_l/value	/jointset/hip_l/hip_adduction_l/value	/jointset/hip_l/hip_rotation_l/value	/jointset/knee_l/knee_angle_l/value	/jointset/ankle_l/ankle_angle_l/value	/jointset/subtalar_l/subtalar_angle_l/value	/jointset/mtp_l/mtp_angle_l/value	/jointset/back/lumbar_extension/value	/jointset/back/lumbar_bending/value	/jointset/back/lumbar_rotation/value	/jointset/acromial_r/arm_flex_r/value	/jointset/acromial_r/arm_add_r/value	/jointset/acromial_r/arm_rot_r/value	/jointset/elbow_r/elbow_flex_r/value	/jointset/radioulnar_r/pro_sup_r/value	/jointset/radius_hand_r/wrist_flex_r/value	/jointset/radius_hand_r/wrist_dev_r/value	/jointset/acromial_l/arm_flex_l/value	/jointset/acromial_l/arm_add_l/value	/jointset/acromial_l/arm_rot_l/value	/jointset/elbow_l/elbow_flex_l/value	/jointset/radioulnar_l/pro_sup_l/value	/jointset/radius_hand_l/wrist_flex_l/value	/jointset/radius_hand_l/wrist_dev_l/value	
          0.10942665	         -9.89065660	         -2.55882089	        -17.05914965	          0.61939679	          0.95877207	          0.31256827	         10.42757509	          4.87233521	         10.01712169	        -21.31193231	         16.80323202	         -9.90747124	         15.47433476	         46.88462992	        -14.92143781	         -5.58925808	       -146.50144812	         -1.31700394	        -29.91417710	         -4.27669326	        -10.59555608	          6.71615531	         10.73314308	         43.28052996	        -26.17869826	        -14.56749102	        109.14552415	         80.77399809	        -29.49867672	          5.11505752	        -39.04345108	        -24.75550491	         -6.18152955	         65.96779328	         84.19915324	        -27.45969910	          5.78480494	
          0.11092678	         -9.85504091	         -2.31819263	        -17.09384109	          0.63718863	          0.95815196	          0.31213901	          9.65596476	          4.35574258	         10.23872480	        -21.76548661	         16.92998273	        -10.02282732	         15.43894852	         48.22165408	        -14.51688868	         -5.37677111	       -146.75118795	         -1.16942527	        -29.96608917	         -3.57972706	        -10.51475490	          6.51616968	         10.85310720	         45.04155505	        -26.13661804	        -14.39273309	        110.18762155	         80.45123258	        -29.48576700	          5.16623350	        -40.45244970	        -24.99136688	         -6.04732232	         66.85171837	         84.97907388	        -27.67805649	          5.74183521	
          0.11092678	         -9.85504091	         -2.31819263	        -17.09384109	          0.63718863	          0.95815196	          0.31213901	          9.65596476	          4.35574258	         10.23872480	        -21.76548661	         16.92998273	        -10.02282732	         15.43894852	         48.22165408	        -14.51688868	         -5.37677111	       -146.75118795	         -1.16942527	        -29.96608917	         -3.57972706	        -10.51475490	          6.51616968	         10.85310720	         45.04155505	        -26.13661804	        -14.39273309	        110.18762155	         80.45123258	        -29.48576700	          5.16623350	        -40.45244970	        -24.99136688	         -6.04732232	         66.85171837	         84.97907388	        -27.67805649	          5.74183521	
          0.11158190	         -9.83514678	         -2.20842272	        -17.09525486	          0.64497669	          0.95789554	          0.31194188	          9.31977963	          4.12038528	         10.31307470	        -21.96676697	         16.94882400	        -10.07310348	         15.42718240	         48.80235180	        -14.32435938	         -5.28484835	       -146.84668563	         -1.11165610	        -29.98393003	         -3.26296853	        -10.47898546	          6.42178830	         10.89170229	         45.80333613	        -26.11467063	        -14.30359336	        110.63547366	         80.29062106	        -29.47509441	          5.19677233	        -41.07909422	        -25.09216542	         -6.02831668	         67.25545342	         85.31017998	        -27.77224305	          5.72168512	
          0.11365178	         -9.75261560	         -1.84427892	        -17.04547865	          0.66966200	          0.95714113	          0.31128141	          8.25262343	          3.33829834	         10.45043930	        -22.60732468	         16.86314878	        -10.22765723	         15.39586967	         50.61819299	        -13.65479354	         -5.00139755	       -147.09427947	         -0.95156859	        -30.01066066	         -2.23191326	        -10.36657339	          6.09623646	         10.95809488	         48.18127000	        -26.03101137	        -13.96503667	        112.01149836	         79.70400840	        -29.42048794	          5.32054149	        -43.10821158	        -25.39541407	         -6.13367643	         68.60938121	         86.29972279	        -28.06778512	          5.65772775	
          0.11515192	         -9.67202983	         -1.57055126	        -16.95518793	          0.68763160	          0.95664841	          0.31076277	          7.46433337	          2.74119089	         10.45043949	        -23.06658068	         16.66162246	        -10.33370505	         15.38380919	         51.91182488	        -13.11436787	         -4.79846820	       -147.22347255	         -0.85573291	        -29.99616954	         -1.45500130	        -10.29009651	          5.84218366	         10.95010175	         49.87893324	        -25.95624879	        -13.65837405	        112.96238066	         79.20970661	        -29.36155593	          5.43277367	        -44.62066898	        -25.59261123	         -6.36709013	         69.64831937	         86.94905336	        -28.28122496	          5.61179057	
          0.11515192	         -9.67202983	         -1.57055126	        -16.95518793	          0.68763160	          0.95664841	          0.31076277	          7.46433337	          2.74119089	         10.45043949	        -23.06658068	         16.66162246	        -10.33370505	         15.38380919	         51.91182488	        -13.11436787	         -4.79846820	       -147.22347255	         -0.85573291	        -29.99616954	         -1.45500130	        -10.29009651	          5.84218366	         10.95010175	         49.87893324	        -25.95624879	        -13.65837405	        112.96238066	         79.20970661	        -29.36155593	          5.43277367	        -44.62066898	        -25.59261123	         -6.36709013	         69.64831937	         86.94905336	        -28.28122496	          5.61179057	
          0.11580703	         -9.63071112	         -1.44987852	        -16.90130216	          0.69550075	          0.95644806	          0.31052533	          7.11371240	          2.47386974	         10.42334678	        -23.26369853	         16.53768586	        -10.37878826	         15.36606570	         52.46935521	        -12.86489917	         -4.71015226	       -147.26682439	         -0.81890828	        -29.98015929	         -1.10771961	        -10.25925488	          5.72806732	         10.93149334	         50.61375954	        -25.91928643	        -13.50776222	        113.36310812	         78.97753080	        -29.33085406	          5.48685035	        -45.29072006	        -25.67073412	         -6.51038752	         70.11243613	         87.21198063	        -28.37403048	          5.59172754	
          0.11787692	         -9.47806818	         -1.07524981	        -16.66981161	          0.72045336	          0.95587035	          0.30972622	          5.97293111	          1.61646863	         10.21767457	        -23.86348121	         16.01382992	        -10.52226220	         15.11005864	         54.20278990	        -12.02936574	         -4.42037320	       -147.35459327	         -0.72210829	        -29.88111720	          0.03244884	        -10.17351063	          5.37010146	         10.80828536	         52.91305521	        -25.78739041	        -12.94662326	        114.56087324	         78.18452315	        -29.21486662	          5.67585454	        -47.43595794	        -25.87956244	         -7.11282675	         71.58973004	         87.96357456	        -28.66096717	          5.52753690	
          0.11937706	         -9.35860776	         -0.80979299	        -16.45270675	          0.73861223	          0.95548743	          0.30910898	          5.13022281	          0.99021624	          9.96465037	        -24.28353392	         15.51461838	        -10.62538740	         14.73467305	         55.44316824	        -11.38880669	         -4.20435752	       -147.37286447	         -0.67204151	        -29.76884020	          0.89934340	        -10.11082722	          5.11682259	         10.66588069	         54.55560639	        -25.67481074	        -12.45707568	        115.35715471	         77.56341251	        -29.11342541	          5.82738727	        -49.00752862	        -25.99635934	         -7.66350541	         72.64490385	         88.43307979	        -28.86268218	          5.48214790	
          0.11937706	         -9.35860776	         -0.80979299	        -16.45270675	          0.73861223	          0.95548743	          0.30910898	          5.13022281	          0.99021624	          9.96465037	        -24.28353392	         15.51461838	        -10.62538740	         14.73467305	         55.44316824	        -11.38880669	         -4.20435752	       -147.37286447	         -0.67204151	        -29.76884020	          0.89934340	        -10.11082722	          5.11682259	         10.66588069	         54.55560639	        -25.67481074	        -12.45707568	        115.35715471	         77.56341251	        -29.11342541	          5.82738727	        -49.00752862	        -25.99635934	         -7.66350541	         72.64490385	         88.43307979	        -28.86268218	          5.48214790	
          0.12003217	         -9.30722740	         -0.69523368	        -16.34734125	          0.74655908	          0.95532539	          0.30883177	          4.76215928	          0.71714020	          9.82973170	        -24.46509644	         15.26666256	        -10.66995380	         14.52069102	         55.98338349	        -11.10247532	         -4.10973990	       -147.36920653	         -0.65574654	        -29.71073349	          1.28612223	        -10.08028125	          5.00856897	         10.59192997	         55.26582579	        -25.62026905	        -12.22154240	        115.68412441	         77.28465736	        -29.06463304	          5.89639454	        -49.69568204	        -26.03873409	         -7.92679897	         73.09498728	         88.61895765	        -28.94904603	          5.46303322	
